# xmcd
#
# Track frame offsets:
#	150
#	10634
#	24037
#	33982
#	46028
#	57293
#	69167
#	78198
#	89454
#	99484
#
# Disc length: 1497 seconds
#
# Revision: 1
# Processed by: cddbd v1.5.2PL0 Copyright (c) Steve Scherf et al.
# Submitted via: audiograbber 1.83.01
#
DISCID=6005d70a
DTITLE=Johnny Bond - His Best
DYEAR=2007
DGENRE=Country
TTITLE0=Cimarron (Roll On)
TTITLE1=Hot Rod Lincoln
TTITLE2=I'll Step Aside
TTITLE3=I Wonder Where You Are Tonight
TTITLE4=Tomorrow Never Comes
TTITLE5=Oklahoma Waltz
TTITLE6=Wish I'da Bought a Half Pint and Stayed in the Yard
TTITLE7=Fort Worth Jail
TTITLE8=I'm Thinking tonight of my Blue Eyes
TTITLE9=Blue Eyes Crying in the Rain
EXTD=
EXTT0=Johnny Bond
EXTT1=Charles Ryan and W.S. Stevenson
EXTT2=Johnny Bond
EXTT3=Johnny Bond
EXTT4=Johnny Bond and Ernest Tubb
EXTT5=Spade Cooley and Cindy Walker
EXTT6=Arranged by Johnny Bond
EXTT7=Dick Reinhart
EXTT8=A.P. Carter
EXTT9=Fred Rose
PLAYORDER=
